<mxGraphModel dx="0" dy="0" grid="1" gridSize="10" guides="1" tooltips="1" connect="1" arrows="1" fold="1" page="0" pageScale="1" background="none" math="0" shadow="0">
  <root>
    <mxCell id="0" />
    <mxCell id="1" parent="0" />
    <mxCell id="node0" parent="1" vertex="1" value="&lt;p style=&quot;margin:0px;margin-top:4px;text-align:center;&quot;&gt;&lt;b&gt;CategoryManagerMenu&lt;/b&gt;&lt;/p&gt;&lt;hr size=&quot;1&quot;/&gt;&lt;p style=&quot;margin:0 0 0 4px;line-height:1.6;&quot;&gt;~ context: NewHierarchyMenu&lt;br/&gt;~ NUMERO_MINIMO_CAT: int&lt;br/&gt;~ parent: Category&lt;/p&gt;&lt;hr size=&quot;1&quot;/&gt;&lt;p style=&quot;margin:0 0 0 4px;line-height:1.6;&quot;&gt;~ start(): Boolean&lt;br/&gt;~ getAlreadyUsed(): List&amp;lt;String&amp;gt;&lt;br/&gt;~ menuEnterCategory(): void&lt;br/&gt;~ root_exists(String): boolean&lt;br/&gt;~ menuAddFields(Category): void&lt;br/&gt;~ getParent(): Category&lt;br/&gt;~ menuNewCategory(): Category&lt;br/&gt;~ setContext(NewHierarchyMenu): void&lt;br/&gt;~ get_default_fields(): HashMap&amp;lt;String, Field&amp;gt;&lt;br/&gt;~ getContext(): NewHierarchyMenu&lt;br/&gt;~ getHierarchy(): Hierarchy&lt;br/&gt;~ setParent(Category): void&lt;/p&gt;" style="verticalAlign=top;align=left;overflow=fill;fontSize=14;fontFamily=Helvetica;html=1;rounded=0;shadow=0;comic=0;labelBackgroundColor=none;strokeWidth=1;">
      <mxGeometry x="-148" y="-182" width="296" height="363" as="geometry" />
    </mxCell>
    <mxCell id="node1" parent="1" vertex="1" value="&lt;p style=&quot;margin:0px;margin-top:4px;text-align:center;&quot;&gt;&lt;b&gt;NewHierarchyMenu&lt;/b&gt;&lt;/p&gt;&lt;hr size=&quot;1&quot;/&gt;&lt;p style=&quot;margin:0 0 0 4px;line-height:1.6;&quot;&gt;+ already_used: List&amp;lt;String&amp;gt;&lt;br/&gt;+ hierarchy: Hierarchy&lt;br/&gt;+ hierarchies: Hierarchies&lt;/p&gt;&lt;hr size=&quot;1&quot;/&gt;&lt;p style=&quot;margin:0 0 0 4px;line-height:1.6;&quot;&gt;+ start(): Boolean&lt;br/&gt;+ menuAddHierarchyParameters(): void&lt;br/&gt;+ getHierarchiesInstance(): Hierarchies&lt;br/&gt;+ setHierarchy(Hierarchy): void&lt;br/&gt;+ getHierarchy(): Hierarchy&lt;br/&gt;+ setAlready_used(List&amp;lt;String&amp;gt;): void&lt;br/&gt;+ setInterval(): void&lt;br/&gt;+ getAlready_used(): List&amp;lt;String&amp;gt;&lt;br/&gt;+ setHierarchiesInstance(Hierarchies): void&lt;/p&gt;" style="verticalAlign=top;align=left;overflow=fill;fontSize=14;fontFamily=Helvetica;html=1;rounded=0;shadow=0;comic=0;labelBackgroundColor=none;strokeWidth=1;">
      <mxGeometry x="193" y="-182" width="272" height="297" as="geometry" />
    </mxCell>
    <mxCell id="edge1" edge="1" value="" parent="1" source="node0" target="node1" style="html=1;rounded=1;edgeStyle=orthogonalEdgeStyle;dashed=0;startArrow=diamondThinstartSize=12;endArrow=openThin;endSize=12;strokeColor=#595959;exitX=1.000;exitY=0.541;exitDx=0;exitDy=0;entryX=0.000;entryY=0.662;entryDx=0;entryDy=0;">
      <mxGeometry width="50" height="50" relative="1" as="geometry">
        <Array as="points" />
      </mxGeometry>
    </mxCell>
    <mxCell id="label6" parent="edge1" vertex="1" connectable="0" value="1" style="edgeLabel;resizable=0;html=1;align=left;verticalAlign=top;strokeColor=default;">
      <mxGeometry x="153" y="-44" as="geometry" />
    </mxCell>
    <mxCell id="label10" parent="edge1" vertex="1" connectable="0" value="1" style="edgeLabel;resizable=0;html=1;align=left;verticalAlign=top;strokeColor=default;">
      <mxGeometry x="177" y="-44" as="geometry" />
    </mxCell>
    <mxCell id="label11" parent="edge1" vertex="1" connectable="0" value="context" style="edgeLabel;resizable=0;html=1;align=left;verticalAlign=top;strokeColor=default;">
      <mxGeometry x="150" y="15" as="geometry" />
    </mxCell>
    <mxCell id="edge0" edge="1" value="" parent="1" source="node1" target="node0" style="html=1;rounded=1;edgeStyle=orthogonalEdgeStyle;dashed=1;startArrow=none;endArrow=openThin;endSize=12;strokeColor=#595959;exitX=0.000;exitY=0.611;exitDx=0;exitDy=0;entryX=1.000;entryY=0.500;entryDx=0;entryDy=0;">
      <mxGeometry width="50" height="50" relative="1" as="geometry">
        <Array as="points" />
      </mxGeometry>
    </mxCell>
    <mxCell id="label2" parent="edge0" vertex="1" connectable="0" value="«create»" style="edgeLabel;resizable=0;html=1;align=left;verticalAlign=top;strokeColor=default;">
      <mxGeometry x="146" y="-20" as="geometry" />
    </mxCell>
  </root>
</mxGraphModel>